<?xml version="1.0" encoding="utf-8"?>
<!-- Generator: Adobe Illustrator 27.5.0, SVG Export Plug-In . SVG Version: 6.00 Build 0)  -->
<svg version="1.1" xmlns="http://www.w3.org/2000/svg" xmlns:xlink="http://www.w3.org/1999/xlink" x="0px" y="0px"
	 viewBox="0 0 750 500" style="enable-background:new 0 0 750 500;" xml:space="preserve">
<g id="BACKGROUND">
</g>
<g id="OBJECTS">
	<g>
		<path style="fill:#F59D7D;" d="M149.807,141.256c-0.335-0.251,11.971,24.445,11.469,31.645c-0.502,7.2-8.385,10.297-11.476,10.465
			c-3.091,0.167-3.091,0.167-3.091,0.167s5.687,20.722,6.027,20.977c0.34,0.255,5.434,1.953,5.434,1.953
			s-8.406,11.208-15.113,10.868c-6.708-0.34-21.906-9.764-21.906-9.764s5.434-2.123,6.198-3.736
			c0.764-1.613-0.509-28.698-0.509-28.698s-3.566,1.953-6.538-0.679c-2.972-2.632-1.443-7.642,1.868-8.491
			c3.311-0.849,3.736,1.273,3.736,1.273s-0.255-16.302,0-16.896C126.16,149.745,149.807,141.256,149.807,141.256z"/>
		<path style="fill:#BF6747;" d="M141.578,156.827c0,0,10.669,10.288,10.034,10.669c-0.635,0.381-4.763,1.016-5.335,0.953
			C145.706,168.385,141.578,156.827,141.578,156.827z"/>
		<path style="fill:#BF6747;" d="M139.164,163.495c0,0-7.684,0.699-6.668,1.842c1.016,1.143,6.414,0,7.176-0.318
			C140.435,164.701,139.793,163.431,139.164,163.495z"/>
		<path style="fill:#BF6747;" d="M151.358,158.287c0,0-3.747,1.778-2.794,2.286c0.953,0.508,4.89-1.461,4.699-1.969
			C153.072,158.097,152.465,157.713,151.358,158.287z"/>
		<path style="fill:#BF6747;" d="M146.709,183.533c0,0-8.751-0.669-11.037-1.621c-2.286-0.953-4.191-3.493-4.191-3.493
			s0.381,5.144,4.731,9.081c4.35,3.937,12.733,4.102,12.733,4.102L146.709,183.533z"/>
		<path style="fill:#5C3222;" d="M146.959,155.594c0,0-0.306-1.07-1.467-0.947c-1.161,0.122-1.375,1.06-0.458,2.18
			C145.951,157.947,147.112,156.296,146.959,155.594z"/>
		<path style="fill:#5C3222;" d="M142.651,172.126c0,0,2.72,2.047,5.44,1.07c2.72-0.978,2.842-3.086,2.995-3.27
			c0.153-0.183,0.554-0.214,0.554-0.214s-0.279,4.859-4.129,4.737C143.659,174.326,142.651,172.493,142.651,172.126z"/>
		<path style="fill:#5C3222;" d="M137.044,160.656c0,0-0.702-0.885-1.985-0.916c-1.282-0.031-1.588,2.592-0.305,2.899
			S137.197,161.999,137.044,160.656z"/>
		<path style="fill:#5C3222;" d="M145.165,151.528c0,0-1.099-0.733-2.046-0.305c-0.947,0.427-0.244,1.404-0.244,1.404
			s3.145-0.214,3.206-0.305C146.142,152.23,145.491,151.703,145.165,151.528z"/>
		<path style="fill:#5C3222;" d="M134.449,154.637c-0.122-0.086-1.495-0.055-2.045,0.28c-0.55,0.336-0.733,2.503-0.367,2.534
			c0.366,0.031,2.076-1.404,2.504-1.801S134.449,154.637,134.449,154.637z"/>
		<path style="fill:#5C3222;" d="M126.847,153.135c0,0,4.65,1.328,4.384,7.129c-0.266,5.801-3.941,7.129-3.941,7.129
			s1.86,1.151,0.841,1.55c-1.018,0.398-2.03-2.752-3.141-2.859s-1.73-0.251-1.73-0.251s-2.347-8.412-2.081-11.197
			c0.266-2.785,1.018-5.398,1.506-5.531c0.487-0.133,0.753,0.797,0.753,0.797s0.709-4.96,6.997-8.901
			c6.288-3.941,19.617-5.181,20.148-3.1c0.531,2.081-1.284,3.352-1.284,3.352s2.246-0.005,2.037,1.475
			c-0.209,1.479-6.819,8.635-13.329,9.343C131.496,152.781,126.847,153.135,126.847,153.135z"/>
		<path style="fill:#9E2929;" d="M158.17,206.462c0,0,48.178,3.331,50.344,4.956c2.166,1.624,28.875,57.569,28.875,57.569
			l-35.913,22.558c0,0-0.361,33.747-2.166,38.079c-1.805,4.331-7.94,13.174-7.94,13.174s-76.699,3.97-77.24,3.79
			c-0.541-0.181-11.007-13.174-11.73-17.325c-0.722-4.142,0-33.919,0-33.928c0,0-35.732-24.363-36.093-25.987
			c-0.361-1.624,20.212-48.546,23.28-51.072c3.068-2.526,31.565-10.71,31.565-10.71s14.093,8.905,22.395,7.822
			S158.17,206.462,158.17,206.462z"/>
		<path style="fill:#518055;" d="M121.151,207.566c0,0,13.257,7.648,20.52,7.479s16.499-8.583,16.499-8.583l5.967,0.428
			c0,0-13.768,17.021-22.55,16.515c-8.782-0.507-25.2-14.443-25.2-14.443L121.151,207.566z"/>
		<polygon style="fill:#518055;" points="233.546,260.978 237.388,268.987 201.475,291.545 199.774,280.924 		"/>
		<polygon style="fill:#518055;" points="102.399,295.335 102.399,287.479 69.384,260.978 64.981,270.007 		"/>
		<path style="fill:#F59D7D;" d="M237.388,268.987l2.065,3.822l14.348-63.647c0,0-4.571,0.546-5.41-0.893
			c-0.839-1.438-5.573-14.202-6.472-15.521c-0.899-1.318-3.596-9.229-3.356-9.768s1.738-0.24,2.517,0.18
			c0.779,0.42,2.816,5.214,3.476,7.011c0.659,1.798,3.236,4.674,3.236,4.674s5.007-17.858,6.009-20.554
			c1.002-2.697,3.399-4.135,4.538-4.375c1.139-0.24,5.214,2.397,5.393,3.895c0.18,1.498-7.752,132.754-10.809,135.131
			c-3.057,2.377-8.657,3.566-15.536,0.679c-6.879-2.887-27.766-23.195-27.766-23.195L237.388,268.987z"/>
		<path style="fill:none;stroke:#5C3222;stroke-width:0.5;stroke-miterlimit:10;" d="M260.033,189.319c0,0-7.691,0.606-9.966,3.066"
			/>
		
			<line style="fill:none;stroke:#5C3222;stroke-width:0.5;stroke-miterlimit:10;" x1="260.033" y1="172.283" x2="257.052" y2="189.319"/>
		
			<line style="fill:none;stroke:#5C3222;stroke-width:0.5;stroke-miterlimit:10;" x1="257.052" y1="172.88" x2="252.734" y2="190.812"/>
		<path style="fill:#F59D7D;" d="M96.872,291.545c0,0-9.258,45.692-10.884,61.229c-1.626,15.537-5.601,35.59-5.601,35.59
			s7.633,2.71,8.243,6.684c0.61,3.975,1.333,13.911,1.333,14.814c0,0.903,0.361,6.865-0.542,8.672
			c-0.903,1.807-0.903,3.071-2.891,1.807c-1.987-1.265-1.807-10.298-3.794-12.104c-1.987-1.807-2.349-0.903-2.349-0.903
			s-1.807,26.918-3.613,27.46c-1.807,0.542-4.517,0-4.878-1.265s-8.13-38.661-9.033-43.72c-0.903-5.059-0.542-11.924-0.361-12.466
			c0.181-0.542,6.323-72.445,6.865-76.961c0.542-4.517,6.071-23.855,6.071-23.855L96.872,291.545z"/>
		<polygon style="fill:#5C3222;" points="114.129,346.588 102.399,500.433 193.014,500.433 189.111,342.915 		"/>
		<polygon style="fill:#29160F;" points="114.129,346.588 113.258,358.008 189.43,355.766 189.111,342.915 		"/>
		<path style="fill:#D9BE50;" d="M162.181,344.234c0.376,0.035-12.57,0.616-12.57,0.616l-0.515,12.104l12.32-0.363l0.127-2.038
			l-10.198,0.381v-8.34l10.846-0.547L162.181,344.234z"/>
		<polyline style="fill:none;stroke:#29160F;stroke-miterlimit:10;" points="145.076,500.556 149.096,411.252 170.548,398.976 		"/>
		<path style="fill:none;stroke:#691B1B;stroke-miterlimit:10;" d="M201.475,291.545c0,0-5.77-40.152-4.72-40.752
			c1.05-0.6,3.749,22.191,3.749,22.191l9.119-24.89"/>
		<path style="fill:none;stroke:#691B1B;stroke-miterlimit:10;" d="M102.399,295.335c0,0,0.639-52.875-1.15-53.233
			c-1.789-0.358-1.611,17.989-1.611,18.211"/>
		<path style="fill:none;stroke:#691B1B;stroke-miterlimit:10;" d="M107.154,284.694c0,0,12.169-34.849,12.706-34.694"/>
		<path style="fill:none;stroke:#691B1B;stroke-miterlimit:10;" d="M116.386,311.317c0,0,32.151,9.343,47.75,2.777
			c15.599-6.566,26.467-12.679,26.467-12.679s-20.557,21.057-26.467,21.962"/>
	</g>
	<g>
		<path style="fill:#518073;" d="M392.911,189.247c0,0,11.52,7.777,13.47,14.229c1.951,6.452,1.736,8.764,1.736,8.764
			s39.241,3.817,45.014,15.704c5.774,11.887,15.623,92.038,13.924,112.075c-1.698,20.038-9.17,53.66-9.17,53.66l-19.019,3.396
			l-6.453-56.038c0,0-5.094,21.057-10.189,23.094c-5.094,2.038-5.094,2.038-5.094,2.038s-79.811,7.132-83.887,5.774
			c-4.076-1.358-10.528-7.153-11.208-13.935c-0.679-6.782-3.057-31.914-3.057-31.914s-4.415,14.264-15.283,13.245
			c-10.868-1.019-19.358-8.83-19.358-25.472c0-16.641,4.415-76.075,6.113-77.094c1.698-1.019,17.321-3.736,18.34-2.717
			c1.019,1.019,1.019,3.057,1.019,3.057s4.755-14.604,7.472-16.981c2.717-2.377,37.358-7.893,37.358-7.893s-3.736-2.975-0.34-10.447
			c3.396-7.472,9.61-15.592,9.61-15.592L392.911,189.247z"/>
		<path style="fill:#F59D7D;" d="M363.912,146.05l-2.941,12.787c0,0-2.557-1.407-6.138,0c-3.58,1.406-2.557,8.184,0.767,9.334
			c3.325,1.151,3.325,1.151,3.325,1.151s-1.279,12.915,4.987,16.879c6.266,3.964,7.289,3.708,7.289,3.708l-3.836,15.472
			c0,0,4.603,6.138,11.508,6.777c6.905,0.639,9.462-2.685,9.462-2.685l7.928-35.036c0,0,2.43,2.941,6.905,0.256
			c4.475-2.685,4.092-9.079,0-9.59c-4.092-0.511-4.859,0.895-4.859,0.895l2.813-12.531c0,0-12.915-10.485-20.331-10.997
			C373.374,141.958,363.912,146.05,363.912,146.05z"/>
		<path style="fill:#5C2917;" d="M390.085,159.593c0,0-0.347-1.884-2.181-1.735c-1.834,0.149-2.132,2.132-0.892,2.776
			C388.251,161.278,389.838,161.031,390.085,159.593z"/>
		<path style="fill:#5C2917;" d="M371.81,157.343c0,0,0.8-1.714-1.543-1.828c-2.342-0.114-2.742,1.943-1.657,2.685
			C369.696,158.943,371.753,158.382,371.81,157.343z"/>
		<path style="fill:#5C2917;" d="M369.81,174.271c0,0,0.522,0.392,0.979,1.045c0.457,0.653,2.285,3.526,4.962,3.461
			c2.677-0.065,5.158-2.219,6.007-2.252c0.849-0.033,0.849-0.033,0.849-0.033s-4.44,4.375-8.554,3.395
			C369.941,178.907,369.81,174.271,369.81,174.271z"/>
		<path style="fill:#BF6747;" d="M376.793,159.41c0,0-6.591,8.93-5.59,11.099c1.001,2.169,3.921,2.503,5.006,2.169
			C377.294,172.345,378.045,159.824,376.793,159.41z"/>
		<path style="fill:#BF6747;" d="M390.559,164.752c0,0-4.172-1.585-6.925-1.085c-2.753,0.501,1.168,1.944,4.005,2.432
			C390.476,166.588,391.356,165.024,390.559,164.752z"/>
		<path style="fill:#BF6747;" d="M369.368,162.583c0,0-1.585-1.724-3.838-1.613c-2.253,0.111,0,1.835,1.919,2.6
			C369.368,164.335,369.368,162.583,369.368,162.583z"/>
		<path style="fill:#BF6747;" d="M371.201,189.909c0,0,4.759,2.06,9.958,0s6.369-4.009,6.369-4.009s-0.611,7.409-4.92,9.359
			c-4.309,1.95-12.798,2.47-12.798,2.47L371.201,189.909z"/>
		<path style="fill:#5C3222;" d="M364.588,145.773c0,0,3.165,4.943,9.107,4.257c5.942-0.686,9.827-2.628,11.998,0.457
			c2.171,3.085,2.857,6.964,6.627,8.053c3.771,1.089,4.294,0.087,5.256,3.26c0.962,3.173,0.732,4.198,0.732,4.198
			s4.753-2.484,6.695,1.058c1.943,3.542-1.938,7.693-4.914,7.884c-2.975,0.191-3.828-0.503-3.828-0.503l-1.506,6.656
			c0,0,4.534,4.017,7.962,1.96c3.428-2.057,0.343-3.314,4.799-4.799c4.456-1.485,10.97-3.656,10.855-8.913
			c-0.114-5.256-4.571-8.008-2.971-13.831c1.6-5.823,0.114-15.65-6.056-20.678c-6.17-5.028-17.812,1.257-21.818-1.6
			c-4.006-2.857-7.483-10.055-16.428-8.341c-8.945,1.714-10.316,11.541-14.773,11.884c-4.456,0.343-9.027,0.114-11.769,5.028
			c-2.742,4.914-2.171,8.113,0,12.912c2.171,4.799-2.628,12.798,2.628,15.54c5.256,2.742,11.643,0.917,11.643,0.917l0.096-1.85
			c0,0-6.401-0.738-6.271-5.559c0.13-4.82,3.248-5.718,8.317-4.926L364.588,145.773z"/>
		<path style="fill:#DEB252;" d="M289.945,235.675l17.998-2.627c0,0,1.675-0.158,2.238,0.584c0.563,0.742,2.53,16.539,2.238,17.317
			c-0.292,0.778-24.225,4.183-25.003,3.794c-0.778-0.389,1.265-17.317,1.265-17.317S288.911,235.826,289.945,235.675z"/>
		<path style="fill:#DEB252;" d="M436.918,380.143l24.2-2.076c0,0,1.003-0.281,1.124,1.038c0.121,1.319-2.542,13.547-3.269,14.637
			s-19.855,4.843-21.066,4.358c-1.211-0.484-0.407-2.421-0.99-2.785c-0.584-0.363-1.552-13.681-1.552-13.681
			S436.079,380.215,436.918,380.143z"/>
		<path style="fill:#DEB252;" d="M387.528,221.805c0,0-0.858,34.443,0,34.769c0.859,0.327,3.47,0.979,3.47,0
			c0-0.979,0-34.116,0-34.116S388.792,220.826,387.528,221.805z"/>
		<path style="fill:#DEB252;" d="M365.044,220.01c0,0,0.653,30.689-0.816,30.852c-1.469,0.163-2.612,1.052-2.612-0.861
			s1.143-29.99,1.143-29.99S364.064,219.193,365.044,220.01z"/>
		<path style="fill:none;stroke:#35544C;stroke-miterlimit:10;" d="M431.989,339.345c0,0-0.756-59.185,0-60.948
			c0.756-1.763,3.479,5.793,3.377,8.059c-0.103,2.267,0,42.815,0,42.815s6.949-10.829,7.957-13.6"/>
		<path style="fill:none;stroke:#35544C;stroke-miterlimit:10;" d="M422.566,308.739c0,0-28.868,29.242-49.925,32.299
			c-21.057,3.057-34.302,0.34-35.321,0c-1.019-0.34,26.695,8.151,36.951,8.151s26.219-9.844,26.219-9.844"/>
		<path style="fill:none;stroke:#35544C;stroke-miterlimit:10;" d="M312.418,250.949c0.234,1.095,5.388,41.527,5.744,40.596
			c0.355-0.93,0.711-13.195-0.533-16.928s-2.171-11.198-2.171-11.198l12.836,10.665"/>
		<path style="fill:none;stroke:#35544C;stroke-miterlimit:10;" d="M387.528,211.179c0,0,4.144-3.669,5.209-6.272
			c1.065-2.604,2.13-8.758,2.722-8.876c0.592-0.118,1.657,0.437,1.657,1.698s-3.077,9.072-3.077,9.072l5.799-4.971"/>
		<path style="fill:none;stroke:#35544C;stroke-miterlimit:10;" d="M386.583,221.492c0,0,4.26-0.373,6.272,1.403"/>
		<path style="fill:#F59D7D;" d="M440.463,397.941c0,0-4.237,13.787-3.783,17.874c0.454,4.087,2.876,8.629,4.39,8.477
			c1.514-0.151,1.211-4.39,0.757-5.904c-0.454-1.514-0.151-4.541-0.151-4.541l4.087-6.358c0,0,1.848,28.157,3.043,28.46
			c1.195,0.303,10.732-20.285,10.884-23.01c0.151-2.725-1.803-19.26-1.803-19.26L440.463,397.941z"/>
		<path style="fill:#F59D7D;" d="M290.735,235.56c0,0,5.755-57.708,8.007-59.335c2.253-1.627,3.379-2.878,4.255-2.753
			c0.876,0.125,4.13,20.024,5.006,20.274c0.876,0.25,2.128-1.931,2.128-1.931s3.629-10.103,4.505-9.968
			c0.876,0.135,1.752,2.715,1.377,4.053c-0.375,1.338-3.501,15.605-3.565,18.483c-0.064,2.878,0.562,4.255-0.94,5.006
			s-5.882,1.377-5.882,1.377l2.317,22.283L290.735,235.56z"/>
		<path style="fill:none;stroke:#5C3222;stroke-width:0.5;stroke-miterlimit:10;" d="M306.508,194.636c0,0-7.639,0.602-8.842,0.902"
			/>
		
			<line style="fill:none;stroke:#5C3222;stroke-width:0.5;stroke-miterlimit:10;" x1="300.793" y1="195.087" x2="300.793" y2="175.447"/>
		
			<line style="fill:none;stroke:#5C3222;stroke-width:0.5;stroke-miterlimit:10;" x1="304.098" y1="194.836" x2="303.419" y2="178.455"/>
		<polygon style="fill:#203332;" points="335.728,372.114 330.425,500 365.221,500 375.795,410.66 379.93,408.672 385.104,500.433 
			426.528,500.433 419.432,365.25 		"/>
	</g>
	<g>
		<path style="fill:#053644;" d="M541.551,312.566c0,0.432-9.949,187.434-9.949,187.434h25.955l12.808-129.037l10.502-0.433
			l6.11,129.47h27.68l-9.084-191.885L541.551,312.566z"/>
		<path style="fill:#F59D7D;" d="M552.28,181.777c0,0,0.7,13.168,9.666,16.53c8.966,3.362,20.032,2.101,25.216-4.903
			s5.604-14.569,5.604-14.569s5.603,0.42,7.004-2.802s-1.541-8.125-4.063-8.125s-2.522,0-2.522,0l-2.381-13.869
			c0,0-24.649-9.479-36.703-1.401c-3.747,2.511-2.942,16.39-2.942,16.39s-3.782-1.681-6.444,0.42
			c-2.662,2.101-3.502,8.965,0.84,11.487C549.898,183.458,552.28,181.777,552.28,181.777z"/>
		<path style="fill:#F59D7D;" d="M564.828,199.205l-3.745,24.026l-7.331,1.248c0,0,19.498,27.297,21.37,26.673
			c1.872-0.624,11.855-25.269,11.855-25.269l-5.771-0.699l-1.43-26.442L564.828,199.205z"/>
		<path style="fill:#0A2F2E;" d="M565.82,149.41c0,0,0.42,8.427-5.118,14.518c-5.538,6.092-9.542,5.101-9.542,5.101
			s-6.112-2.263-8.322,3.587c-2.21,5.85,3.858,8.63,6.65,8.896c2.793,0.266,2.793,0.266,2.793,0.266l2.662,9.811
			c0,0-7.947,7.922-16.392,5.706c-8.445-2.215-9.83-9.691-7.615-13.291s1.8-2.215,1.8-2.215s-0.277,3.184,2.077,4.154
			c2.354,0.969,5.4-2.354,4.292-5.123c-1.108-2.769-5.676-7.476-5.953-13.153c-0.277-5.676,5.848-13.568,14.761-16.891
			C556.825,147.453,563.738,147.075,565.82,149.41z"/>
		<path style="fill:#0A2F2E;" d="M564.383,148.467c0,0,5.68,8.958,13.026,14.044c7.346,5.086,15.776,5.398,15.776,5.398
			s4.509-1.454,6.112,3.033c1.603,4.486-0.476,7.358-3.231,7.635c-2.755,0.277-3.302,0.259-3.302,0.259l-3.868,11.92
			c0,0,3.043,9.457,12.569,9.335c9.526-0.122,14.773-8.517,14.289-11.343c-0.484-2.826-1.857-3.714-1.857-3.714
			s-1.534,6.781-5.167,5.328s-5.409-3.552-3.714-7.185s4.117-10.414,3.471-17.68c-0.646-7.266-9.687-15.904-21.232-18.245
			C575.713,144.912,564.383,148.467,564.383,148.467z"/>
		<path style="fill:#BF6747;" d="M570.757,167.414c0,0-3.313,11.907-2.686,12.086c0.627,0.179,3.249,0,3.249,0L570.757,167.414z"/>
		<path style="fill:#BF6747;" d="M581.909,173.865c0,0-1.416-0.499-3.777-0.368c-2.361,0.132-2.597,1.17,0.331,1.454
			C581.389,175.234,582.569,174.337,581.909,173.865z"/>
		<path style="fill:#BF6747;" d="M565.1,172.496c0,0-3.069-0.944-4.627-0.803c-1.558,0.142-2.03,0.989,0.472,1.58
			C563.447,173.865,565.383,173.015,565.1,172.496z"/>
		<path style="fill:#0A2F2E;" d="M566.615,149.543c0,0,3.247,9.319,0.169,12.018c-3.078,2.699-8.181,0.759-8.181,0.759
			s-0.464,2.151,4.217,1.855c4.681-0.295,7.642-2.952,6.836-8.476C568.85,150.176,566.615,149.543,566.615,149.543z"/>
		<path style="fill:#5C3222;" d="M580.234,168.566c0,0,0.09-1.93-1.93-1.93c-2.02,0-2.469,2.604-1.392,3.322
			C577.99,170.676,580.19,169.957,580.234,168.566z"/>
		<path style="fill:#5C3222;" d="M567.171,168.88c0,0-0.09-1.571-1.616-1.84c-1.526-0.269-2.738,0.449-2.424,2.11
			c0.314,1.661,1.665,1.885,2.696,1.526C566.857,170.316,567.171,168.88,567.171,168.88z"/>
		<path style="fill:#5C3222;" d="M565.128,182.706c0,0,1.191,0.135,1.685,0.853c0.494,0.718,1.897,2.693,3.552,2.155
			c1.655-0.539,3.316-2.693,3.899-3.008c0.584-0.314,1.167-0.314,1.167-0.314s-2.648,4.534-5.252,4.354
			c-2.604-0.179-4.986-3.681-5.052-4.354"/>
		<path style="fill:#BF6747;" d="M564.828,199.205c0,0,4.03,1.824,8.106,1.399c4.075-0.425,6.842-1.862,6.842-1.862l0.459,5.768
			c0,0-4.115,2.632-7.703,2.802s-8.454-3.289-8.454-3.289L564.828,199.205z"/>
		<polygon style="fill:#9E2929;" points="553.752,224.479 547.911,224.952 543.86,312.566 600.131,309.617 598.069,225.922 
			586.977,225.883 574.48,250 		"/>
		<path style="fill:#C27829;" d="M598.069,225.922c0,0,38.743-0.416,42.97,3.811c4.227,4.227,17.556,26.009,17.556,26.009
			s18.206-30.727,19.507-29.831c1.3,0.896,16.581,2.847,16.581,2.847s-16.906,90.056-22.108,90.706
			c-5.202,0.65-46.816-40.964-46.816-40.964s7.478,81.928,0.325,95.258c-7.152,13.33-15.93,16.581-15.93,16.581
			s-8.99-16.581-10.022-29.91C599.099,347.099,598.069,225.922,598.069,225.922z"/>
		<path style="fill:#C27829;" d="M513.269,233.309c-4.552,4.552-45.191,74.126-42.915,77.377
			c2.276,3.251,44.866,31.536,44.866,31.536s0.325,6.502,3.251,18.531c2.926,12.029,19.832,27.34,19.832,27.34
			s2.926-8.808,4.206-22.843c1.28-14.035,5.403-140.298,5.403-140.298S517.821,228.758,513.269,233.309z M518.146,323.366
			l-13.98-18.531l18.206-32.836L518.146,323.366z"/>
		<path style="fill:#FF9E7C;" d="M679.773,226.43l3.645-15.414c0,0-8.032-2.966-9.391-6.055c-1.359-3.089-2.224-14.829-0.618-15.817
			c1.606-0.989,7.291,11.616,7.291,11.616s10.049-24.838,13.983-25.332c3.935-0.494,4.923,1.359,4.923,1.359l-6.272,51.794
			L679.773,226.43z"/>
		
			<line style="fill:none;stroke:#5C3222;stroke-width:0.5;stroke-miterlimit:10;" x1="693.473" y1="195.973" x2="686.072" y2="195.973"/>
		
			<line style="fill:none;stroke:#5C3222;stroke-width:0.5;stroke-miterlimit:10;" x1="697.592" y1="175.531" x2="692.186" y2="195.973"/>
		
			<line style="fill:none;stroke:#5C3222;stroke-width:0.5;stroke-miterlimit:10;" x1="688.443" y1="195.973" x2="694.682" y2="175.428"/>
		<polygon style="fill:#C27829;" points="562.42,214.656 580.636,214.656 580.867,218.926 561.755,218.926 		"/>
		<polygon style="fill:#DEC1A2;" points="553.752,224.479 574.48,250 586.977,225.883 589.586,225.892 575.566,254.859 
			551.364,224.672 		"/>
		<polygon style="fill:#518073;" points="544.869,312.335 544.53,321.283 599.141,319.838 598.992,309.677 		"/>
		<polygon style="fill:#C27829;" points="567.962,311.201 567.962,320.663 579.316,320.363 579.316,310.643 		"/>
		<path style="fill:none;stroke:#9E4624;stroke-width:0.5;stroke-miterlimit:10;" d="M523.017,271.998
			c0,0-4.398-16.159-3.665-16.159s4.398,13.684,4.398,13.684v-13.684"/>
		<path style="fill:none;stroke:#9E4624;stroke-width:0.5;stroke-miterlimit:10;" d="M625.758,278.5c0,0,0.397-20.021,0-19.288
			c-0.397,0.733,2.778,19.288,2.778,19.288"/>
		<path style="fill:none;stroke:#9E4624;stroke-width:0.5;stroke-miterlimit:10;" d="M658.595,255.742
			c0,0,15.617,18.05,15.128,16.256c-0.489-1.795-11.48-16.159-11.48-16.159l6.351-0.096"/>
		<path style="fill:none;stroke:#9E4624;stroke-width:0.5;stroke-miterlimit:10;" d="M518.146,323.366c0,0,3.67,4.084,4.227,9.03
			c0.556,4.946-3.104,14.838-3.104,14.838l8.056-10.716"/>
	</g>
</g>
</svg>
